<?xml version="1.0" encoding="UTF-8" standalone="no"?>
<svg
   xmlns:dc="http://purl.org/dc/elements/1.1/"
   xmlns:cc="http://creativecommons.org/ns#"
   xmlns:rdf="http://www.w3.org/1999/02/22-rdf-syntax-ns#"
   xmlns:svg="http://www.w3.org/2000/svg"
   xmlns="http://www.w3.org/2000/svg"
   xmlns:sodipodi="http://sodipodi.sourceforge.net/DTD/sodipodi-0.dtd"
   xmlns:inkscape="http://www.inkscape.org/namespaces/inkscape"
   id="svg40"
   version="1.1"
   height="341.81476"
   width="341.90634"
   viewBox="0 0 341.90633 341.81477"
   sodipodi:docname="zackneticLogo-NoName.svg"
   inkscape:version="1.0.1 (3bc2e813f5, 2020-09-07)">
  <sodipodi:namedview
     pagecolor="#ffffff"
     bordercolor="#666666"
     borderopacity="1"
     objecttolerance="10"
     gridtolerance="10"
     guidetolerance="10"
     inkscape:pageopacity="0"
     inkscape:pageshadow="2"
     inkscape:window-width="1669"
     inkscape:window-height="904"
     id="namedview881"
     showgrid="false"
     inkscape:zoom="1.9976231"
     inkscape:cx="170.95317"
     inkscape:cy="294.68671"
     inkscape:window-x="0"
     inkscape:window-y="0"
     inkscape:window-maximized="0"
     inkscape:current-layer="g36"
     fit-margin-top="0"
     fit-margin-left="0"
     fit-margin-right="0"
     fit-margin-bottom="0" />
  <metadata
     id="metadata44">
    <rdf:RDF>
      <cc:Work
         rdf:about="">
        <dc:format>image/svg+xml</dc:format>
        <dc:type
           rdf:resource="http://purl.org/dc/dcmitype/StillImage" />
        <dc:title></dc:title>
      </cc:Work>
    </rdf:RDF>
  </metadata>
  <defs
     id="defs22">
    <marker
       style="overflow:visible"
       refY="0"
       refX="0"
       orient="auto"
       id="DistanceX">
      <path
         id="path10"
         style="stroke:#000000;stroke-width:0.5"
         d="M 3,-3 -3,3 M 0,-5 V 5" />
    </marker>
    <pattern
       y="0"
       x="0"
       height="8"
       width="8"
       patternUnits="userSpaceOnUse"
       id="Hatch">
      <path
         id="path13"
         linecap="square"
         stroke-width="0.25"
         stroke="#000000"
         d="M8 4 l-4,4" />
      <path
         id="path15"
         linecap="square"
         stroke-width="0.25"
         stroke="#000000"
         d="M6 2 l-4,4" />
      <path
         id="path17"
         linecap="square"
         stroke-width="0.25"
         stroke="#000000"
         d="M4 0 l-4,4" />
    </pattern>
    <symbol
       id="*MODEL_SPACE" />
    <symbol
       id="*PAPER_SPACE" />
  </defs>
  <g
     transform="translate(-243.72656,-469.53638)"
     style="display:inline"
     id="g36">
    <path
       id="path24"
       style="display:none;fill:none;stroke:#000000"
       d="m 422.23102,774.12302 a 7.559055,7.559055 0 1 0 -15.11811,0 7.559055,7.559055 0 1 0 15.11811,0 z" />
    <path
       id="path26"
       style="display:none;fill:none;stroke:#000000"
       d="M 393.29173,485.48982 259.66525,619.1163 a 30.23622,30.23622 0 0 0 0,42.76048 h 126.16072 a 35.905512,35.905512 0 1 1 57.69199,0 h 126.16072 a 30.23622,30.23622 0 0 0 0,-42.76048 L 436.0522,485.48982 a 30.23622,30.23622 0 0 0 -42.76047,0 z" />
    <path
       id="path28"
       style="display:none;fill:none;stroke:#000000"
       d="m 443.01842,640.49654 a 28.346457,28.346457 0 1 0 -56.69291,0 28.346457,28.346457 0 1 0 56.69291,0 z" />
    <path
       id="path30"
       style="display:none;fill:none;stroke:#000000"
       d="m 254.32019,667.22184 133.62648,133.62647 a 37.795276,37.795276 0 0 0 53.45059,0 L 575.02374,667.22184 a 37.795276,37.795276 0 0 0 0,-53.4506 L 441.39726,480.14477 a 37.795276,37.795276 0 0 0 -53.45059,0 L 254.32019,613.77124 a 37.795276,37.795276 0 0 0 0,53.4506 z" />
    <path
       id="path32"
       style="display:none;fill:none;stroke:#000000"
       d="m 555.8575,640.49654 a 7.559055,7.559055 0 1 0 -15.11811,0 7.559055,7.559055 0 1 0 15.11811,0 z" />
    <path
       id="path34"
       style="display:none;fill:none;stroke:#000000"
       d="m 563.41656,640.49654 a 15.118115,15.118115 0 1 0 -30.23623,0 15.118115,15.118115 0 1 0 30.23623,0 z" />
    <path
       id="path92"
       d="m 407.51375,810.78257 c -5.61212,-1.17366 -10.69386,-3.42183 -15.02196,-6.64574 -3.28012,-2.4433 -140.59118,-140.00638 -142.27458,-142.53573 -7.26871,-10.92142 -8.50852,-24.358 -3.33457,-36.13883 2.98693,-6.80109 -1.12937,-2.48531 74.58918,-78.20386 75.86216,-75.86215 71.46814,-71.67425 78.28561,-74.61342 12.45769,-5.3708 26.65556,-3.70199 37.30499,4.38482 1.41957,1.07797 31.9423,31.36816 71.53164,70.98667 73.15339,73.20725 70.66209,70.61567 73.39391,76.34864 5.77595,12.1214 4.63745,26.06672 -3.06102,37.49343 -1.28479,1.90698 -17.3445,18.17168 -69.868,70.75973 -37.50987,37.55596 -69.4626,69.31286 -71.00607,70.57091 -3.61372,2.94542 -9.52251,5.94004 -14.03149,7.11129 -4.54592,1.18083 -12.11017,1.40173 -16.50764,0.48209 z m 9.97995,-29.25383 c 3.1812,-1.32919 5.03555,-4.06096 5.03555,-7.41822 0,-5.45822 -4.93546,-9.04815 -10.39337,-7.55988 -1.73724,0.47371 -4.48834,3.26862 -5.04176,5.12203 -1.25012,4.18673 0.84235,8.47851 4.82789,9.9023 1.63863,0.58538 4.10909,0.56488 5.57169,-0.0462 z m 2.99507,-112.88817 c 10.57057,-2.22359 18.88698,-10.01598 21.93429,-20.5522 0.96334,-3.3308 1.06991,-11.28842 0.19362,-14.45789 -2.95282,-10.68014 -10.41885,-18.18436 -20.90636,-21.01331 -3.75691,-1.0134 -10.45114,-1.01177 -14.19657,0.003 -12.32034,3.33956 -20.73806,13.69255 -21.51174,26.45735 -0.55918,9.22585 3.80664,18.68901 11.21122,24.30098 2.65678,2.01359 7.35756,4.2425 10.65602,5.05264 3.25394,0.7992 9.3349,0.89989 12.61952,0.20895 z m -35.20286,-8.35025 c -2.83881,-4.185 -4.96261,-9.63462 -5.68793,-14.59513 -0.54707,-3.74143 -0.23762,-10.34959 0.64228,-13.71547 6.43285,-24.60757 35.10737,-34.91756 55.50155,-19.95571 14.72422,10.80217 18.73906,31.62713 9.06736,47.03235 -0.9922,1.58039 -1.80399,2.93169 -1.80399,3.00289 0,0.0712 28.59407,0.12945 63.54238,0.12945 h 63.54239 l 1.64686,-1.9789 c 8.96072,-10.76739 9.558,-26.111 1.46318,-37.58778 -0.98378,-1.39482 -26.64594,-27.29809 -70.24695,-70.90699 -54.4589,-54.46875 -69.19286,-69.03175 -71.08982,-70.26491 -3.31541,-2.15526 -7.21086,-3.77285 -10.9486,-4.54643 -4.44157,-0.91925 -10.5307,-0.69928 -14.6516,0.5293 -3.04432,0.9076 -6.64448,2.57955 -9.14909,4.24891 -1.91211,1.27445 -138.54259,137.76457 -140.53761,140.39323 -2.67663,3.52676 -4.85002,8.55337 -5.74591,13.28915 -0.57718,3.05108 -0.21717,10.18551 0.67055,13.28816 1.02257,3.57397 3.30835,8.03271 5.6277,10.97758 l 2.01518,2.55868 h 63.7149 63.7149 z"
       style="fill:#ffd0af;fill-opacity:1;stroke:none;stroke-width:0.330153;stroke-opacity:1" />
    <path
       id="path94"
       d="m 545.35256,654.893 c -2.42332,-0.47326 -5.63335,-2.24928 -7.48391,-4.14064 -9.02715,-9.22616 -2.44889,-24.88047 10.45528,-24.88047 5.73898,0 10.69929,3.1968 13.28386,8.56112 0.89475,1.85707 1.06398,2.61973 1.17722,5.3053 0.2003,4.75046 -1.15672,8.23985 -4.42073,11.36732 -3.43434,3.29068 -8.30123,4.7073 -13.01172,3.78737 z m 5.98497,-7.03595 c 1.65981,-0.69362 2.8319,-1.72738 3.76632,-3.32185 3.53327,-6.02907 -1.92342,-13.37037 -8.72519,-11.73865 -2.02569,0.48595 -4.48444,2.52925 -5.35821,4.45283 -1.73613,3.82203 0.26045,8.90777 4.16703,10.61437 1.31956,0.57646 4.76352,0.5727 6.15005,-0.007 z"
       style="display:inline;fill:#ffd0af;fill-opacity:1;stroke-width:0.330153" />
  </g>
  <desc
     id="desc38">zacknetic logo.dxf - scale = 1.000000, origin = (0.000000, 0.000000), method = manual</desc>
</svg>
